<svg width="100" height="100" viewBox="0 0 749 431" fill="none" xmlns="http://www.w3.org/2000/svg">
<path d="M262.046 115.48C262.046 126.2 261.006 136.2 258.926 145.48C256.846 154.6 253.326 162.52 248.366 169.24C243.406 175.8 236.846 181 228.686 184.84C220.526 188.68 210.446 190.6 198.446 190.6C186.286 190.6 176.046 188.68 167.726 184.84C159.406 181 152.766 175.8 147.806 169.24C142.846 162.52 139.246 154.6 137.006 145.48C134.926 136.2 133.886 126.28 133.886 115.72C133.886 101.16 135.246 86.92 137.966 73C140.686 58.92 144.686 46.52 149.966 35.8C155.406 25.08 162.126 16.44 170.126 9.87998C178.286 3.31998 187.566 0.039978 197.966 0.039978C208.366 0.039978 217.566 3.31998 225.566 9.87998C233.726 16.44 240.446 25.08 245.726 35.8C251.166 46.52 255.246 58.84 257.966 72.76C260.686 86.68 262.046 100.92 262.046 115.48ZM198.206 169.48C211.806 169.48 222.206 165.08 229.406 156.28C236.766 147.32 240.446 132.84 240.446 112.84C240.446 101.16 239.406 89.8 237.326 78.76C235.246 67.56 232.366 57.72 228.686 49.24C225.006 40.6 220.526 33.72 215.246 28.6C209.966 23.32 204.206 20.68 197.966 20.68C191.406 20.68 185.486 23.4 180.206 28.84C174.926 34.12 170.446 41.08 166.766 49.72C163.086 58.36 160.286 68.2 158.366 79.24C156.446 90.12 155.486 101.08 155.486 112.12C155.486 132.6 159.166 147.32 166.526 156.28C174.046 165.08 184.606 169.48 198.206 169.48Z" fill="#E74980"/>
<path d="M318.77 183.16C318.77 184.28 318.37 185.16 317.57 185.8C316.77 186.28 315.73 186.6 314.45 186.76C313.49 186.92 312.45 187 311.33 187C310.21 187.16 308.69 187.24 306.77 187.24C305.33 187.24 303.89 187.16 302.45 187C301.17 187 299.97 186.92 298.85 186.76C297.57 186.6 296.53 186.2 295.73 185.56C294.93 184.76 294.45 183.8 294.29 182.68C292.05 170.68 290.37 158.2 289.25 145.24C288.13 132.28 287.57 118.84 287.57 104.92C287.57 90.04 288.21 74.52 289.49 58.36C290.77 42.04 292.61 25.48 295.01 8.67998C295.17 6.75998 295.73 5.47997 296.69 4.83997C297.65 4.19998 298.53 3.79998 299.33 3.63997C300.45 3.47997 301.73 3.39998 303.17 3.39998C304.61 3.23998 306.13 3.15998 307.73 3.15998C309.81 3.15998 311.73 3.23998 313.49 3.39998C315.25 3.55998 316.77 3.71998 318.05 3.87999C319.49 4.35998 320.69 4.99998 321.65 5.79998C322.77 6.59998 323.65 7.79998 324.29 9.39999C331.49 22.68 338.53 37.24 345.41 53.08C352.45 68.76 359.89 86.6 367.73 106.6C368.05 107.4 368.37 108.04 368.69 108.52C369.17 108.84 369.73 109 370.37 109C371.01 109 371.57 108.76 372.05 108.28C372.53 107.8 372.85 107.24 373.01 106.6C380.85 87.24 388.13 69.64 394.85 53.8C401.73 37.8 408.37 23.32 414.77 10.36C415.41 8.75998 416.29 7.39998 417.41 6.27998C418.69 4.99998 420.21 4.19998 421.97 3.87999C423.09 3.71998 424.37 3.63997 425.81 3.63997C427.25 3.47997 428.69 3.39998 430.13 3.39998C431.25 3.39998 432.37 3.47997 433.49 3.63997C434.77 3.63997 436.13 3.71998 437.57 3.87999C439.01 4.03998 440.21 4.59998 441.17 5.55998C442.29 6.35998 443.01 7.71998 443.33 9.63998C446.05 23.56 448.29 38.04 450.05 53.08C451.97 67.96 452.93 83.4 452.93 99.4C452.93 112.36 452.45 125.64 451.49 139.24C450.53 152.84 449.09 166.76 447.17 181C447.01 182.92 446.37 184.36 445.25 185.32C444.13 186.28 442.85 186.84 441.41 187C440.45 187.16 438.93 187.24 436.85 187.24C434.93 187.4 433.01 187.48 431.09 187.48C429.97 187.48 428.85 187.4 427.73 187.24C426.77 187.24 425.97 187.16 425.33 187C424.05 186.84 423.01 186.44 422.21 185.8C421.41 185.16 421.01 184.28 421.01 183.16C421.01 181.72 421.49 178.12 422.45 172.36C423.57 166.44 424.69 159 425.81 150.04C426.93 141.08 427.97 130.84 428.93 119.32C430.05 107.64 430.61 95.4 430.61 82.6C430.61 74.6 430.37 66.28 429.89 57.64C429.41 49 428.61 41.16 427.49 34.12C427.33 33.48 427.09 33 426.77 32.68C426.45 32.36 426.05 32.2 425.57 32.2C425.09 32.2 424.61 32.36 424.13 32.68C423.81 32.84 423.57 33.16 423.41 33.64C416.21 51.72 408.93 70.12 401.57 88.84C394.21 107.4 385.73 124.84 376.13 141.16C375.49 142.28 374.69 143.24 373.73 144.04C372.77 144.68 371.81 145 370.85 145C369.89 145 368.85 144.68 367.73 144.04C366.77 143.4 365.89 142.44 365.09 141.16C360.13 132.68 355.17 123.56 350.21 113.8C345.25 104.04 340.61 94.44 336.29 85C331.97 75.4 327.97 66.2 324.29 57.4C320.77 48.6 317.81 41 315.41 34.6C315.25 33.96 314.93 33.56 314.45 33.4C314.13 33.08 313.73 32.92 313.25 32.92C312.61 32.92 312.13 33.16 311.81 33.64C311.49 33.96 311.25 34.44 311.09 35.08C310.45 42.44 309.89 50.76 309.41 60.04C308.93 69.32 308.69 79 308.69 89.08C308.69 104.6 309.17 117.96 310.13 129.16C311.25 140.2 312.45 149.48 313.73 157C315.01 164.36 316.13 170.12 317.09 174.28C318.21 178.44 318.77 181.4 318.77 183.16Z" fill="#E74980"/>
<path d="M551.377 20.68C544.977 20.68 538.897 22.84 533.137 27.16C527.377 31.32 522.257 37.32 517.777 45.16C513.457 52.84 510.017 62.36 507.457 73.72C504.897 84.92 503.617 97.48 503.617 111.4C503.617 132.84 507.777 147.88 516.097 156.52C524.577 165.16 535.537 169.48 548.977 169.48C561.137 169.48 570.177 166.76 576.097 161.32C582.177 155.88 585.217 147.56 585.217 136.36C585.217 130.12 584.017 125.56 581.617 122.68C579.377 119.8 574.497 118.36 566.977 118.36C565.057 118.36 563.617 117.88 562.657 116.92C561.697 115.96 561.217 114.68 561.217 113.08C561.217 110.04 561.777 108.04 562.897 107.08C564.177 105.96 568.017 104.84 574.417 103.72C583.057 102.12 588.977 100.68 592.177 99.4C595.377 97.96 598.177 97.24 600.577 97.24C601.857 97.24 602.977 97.64 603.937 98.44C604.897 99.24 605.377 100.44 605.377 102.04C605.377 108.12 605.457 114.44 605.617 121C605.937 127.56 606.097 134.28 606.097 141.16C606.097 156.04 601.217 167.88 591.457 176.68C581.697 185.48 567.217 189.88 548.017 189.88C525.457 189.88 508.737 183.24 497.857 169.96C486.977 156.68 481.537 138.6 481.537 115.72C481.537 99.88 483.137 84.92 486.337 70.84C489.537 56.76 494.097 44.6 500.017 34.36C506.097 23.96 513.537 15.72 522.337 9.63998C531.137 3.55999 540.977 0.519985 551.857 0.519985C559.217 0.519985 565.777 1.87998 571.537 4.59998C577.457 7.31998 582.337 10.84 586.177 15.16C590.017 19.32 592.977 24.04 595.057 29.32C597.137 34.44 598.177 39.32 598.177 43.96C598.177 46.52 597.617 48.68 596.497 50.44C595.537 52.2 594.257 53.88 592.657 55.48C591.057 57.08 589.057 58.68 586.657 60.28C584.417 61.72 582.657 62.44 581.377 62.44C580.257 62.44 579.297 62.12 578.497 61.48C577.857 60.68 577.537 59.72 577.537 58.6C577.537 57.48 577.537 56.52 577.537 55.72C577.697 54.76 577.777 53.88 577.777 53.08C577.777 49.88 577.297 46.36 576.337 42.52C575.377 38.68 573.777 35.16 571.537 31.96C569.457 28.76 566.737 26.12 563.377 24.04C560.017 21.8 556.017 20.68 551.377 20.68Z" fill="#E74980"/>
<path d="M61.7262 430.6C41.8862 430.6 26.6862 423.8 16.1262 410.2C5.72624 396.44 0.526245 376.76 0.526245 351.16C0.526245 335.16 1.88625 320.36 4.60625 306.76C7.48625 293 11.6462 281.24 17.0862 271.48C22.5262 261.56 29.2462 253.8 37.2462 248.2C45.4062 242.6 54.6862 239.8 65.0862 239.8C74.5262 239.8 82.4462 241.96 88.8462 246.28C95.2462 250.44 100.366 255.88 104.206 262.6C108.206 269.16 111.086 276.52 112.846 284.68C114.606 292.84 115.486 300.84 115.486 308.68C115.486 310.92 114.926 313.08 113.806 315.16C112.686 317.08 110.846 318.76 108.286 320.2C107.646 320.84 105.886 321.56 103.006 322.36C100.286 323.16 98.3662 323.56 97.2462 323.56C96.1262 323.56 95.2462 323.24 94.6062 322.6C94.1262 321.8 93.8862 320.76 93.8862 319.48C93.8862 318.36 93.8862 317.16 93.8862 315.88C94.0462 314.44 94.1263 313.24 94.1263 312.28C94.1263 306.36 93.6463 300.36 92.6862 294.28C91.7262 288.04 90.1262 282.44 87.8862 277.48C85.6462 272.36 82.6062 268.2 78.7663 265C74.9262 261.64 70.1262 259.96 64.3662 259.96C57.9662 259.96 52.1262 262.2 46.8462 266.68C41.7262 271 37.3262 277.08 33.6462 284.92C30.1262 292.6 27.4062 301.8 25.4862 312.52C23.5662 323.24 22.6062 334.84 22.6062 347.32C22.6062 366.36 25.8062 381.4 32.2062 392.44C38.7662 403.32 49.4862 408.76 64.3662 408.76C76.5262 408.76 86.2862 404.92 93.6462 397.24C101.006 389.56 105.966 379.32 108.526 366.52C108.686 365.56 109.086 364.84 109.726 364.36C110.366 363.72 111.006 363.4 111.646 363.4C113.726 363.4 115.406 364.68 116.686 367.24C118.126 369.64 118.846 373.64 118.846 379.24C118.846 385.64 117.806 391.96 115.726 398.2C113.646 404.44 110.366 409.96 105.886 414.76C101.406 419.4 95.4863 423.24 88.1263 426.28C80.9262 429.16 72.1262 430.6 61.7262 430.6Z" fill="#E74980"/>
<path d="M261.811 355.48C261.811 366.2 260.771 376.2 258.691 385.48C256.611 394.6 253.091 402.52 248.131 409.24C243.171 415.8 236.611 421 228.451 424.84C220.291 428.68 210.211 430.6 198.211 430.6C186.051 430.6 175.811 428.68 167.491 424.84C159.171 421 152.531 415.8 147.571 409.24C142.611 402.52 139.011 394.6 136.771 385.48C134.691 376.2 133.651 366.28 133.651 355.72C133.651 341.16 135.011 326.92 137.731 313C140.451 298.92 144.451 286.52 149.731 275.8C155.171 265.08 161.891 256.44 169.891 249.88C178.051 243.32 187.331 240.04 197.731 240.04C208.131 240.04 217.331 243.32 225.331 249.88C233.491 256.44 240.211 265.08 245.491 275.8C250.931 286.52 255.011 298.84 257.731 312.76C260.451 326.68 261.811 340.92 261.811 355.48ZM197.971 409.48C211.571 409.48 221.971 405.08 229.171 396.28C236.531 387.32 240.211 372.84 240.211 352.84C240.211 341.16 239.171 329.8 237.091 318.76C235.011 307.56 232.131 297.72 228.451 289.24C224.771 280.6 220.291 273.72 215.011 268.6C209.731 263.32 203.971 260.68 197.731 260.68C191.171 260.68 185.251 263.4 179.971 268.84C174.691 274.12 170.211 281.08 166.531 289.72C162.851 298.36 160.051 308.2 158.131 319.24C156.211 330.12 155.251 341.08 155.251 352.12C155.251 372.6 158.931 387.32 166.291 396.28C173.811 405.08 184.371 409.48 197.971 409.48Z" fill="#E74980"/>
<path d="M304.376 427.48C303.416 427.48 302.456 427.4 301.496 427.24C300.536 427.24 299.896 427.16 299.576 427C298.456 426.84 297.176 426.44 295.736 425.8C294.296 425 293.256 423.48 292.616 421.24C291.976 418.68 291.336 415 290.696 410.2C290.056 405.24 289.496 399.56 289.016 393.16C288.536 386.6 288.136 379.4 287.816 371.56C287.496 363.72 287.336 355.48 287.336 346.84C287.336 338.84 287.496 330.6 287.816 322.12C288.136 313.64 288.616 305.24 289.256 296.92C290.056 288.44 291.016 280.2 292.136 272.2C293.416 264.04 294.856 256.36 296.456 249.16C296.776 247.56 297.496 246.36 298.616 245.56C299.896 244.76 301.176 244.28 302.456 244.12C307.896 243.8 313.976 243.56 320.696 243.4C327.576 243.24 334.456 243.16 341.336 243.16C347.896 243.16 354.216 243.32 360.296 243.64C366.536 243.8 371.816 243.96 376.136 244.12C378.216 244.28 379.496 244.84 379.976 245.8C380.616 246.76 380.936 247.8 380.936 248.92C380.936 251.32 380.616 253.96 379.976 256.84C379.496 259.72 378.776 262.28 377.816 264.52C377.496 265.32 377.016 265.88 376.376 266.2C375.736 266.52 375.096 266.68 374.456 266.68C373.816 266.68 373.096 266.68 372.296 266.68C371.656 266.52 371.016 266.36 370.376 266.2C367.816 265.56 363.816 264.84 358.376 264.04C353.096 263.08 346.296 262.6 337.976 262.6C331.576 262.6 326.776 262.92 323.576 263.56C320.536 264.2 318.216 265.32 316.616 266.92C315.176 268.36 313.976 271.08 313.016 275.08C312.216 279.08 311.496 283.88 310.856 289.48C310.216 294.92 309.736 300.92 309.416 307.48C309.256 314.04 309.176 320.52 309.176 326.92C309.176 331.88 309.896 335.24 311.336 337C312.776 338.76 315.656 339.64 319.976 339.64C326.216 339.64 333.496 338.84 341.816 337.24C350.136 335.64 359.176 334.84 368.936 334.84C370.536 334.84 371.976 335.16 373.256 335.8C374.536 336.44 375.176 337.56 375.176 339.16C375.176 341.56 374.936 344.44 374.456 347.8C373.976 351 373.256 353.72 372.296 355.96C371.816 357.08 371.176 357.88 370.376 358.36C369.736 358.84 368.856 359.08 367.736 359.08C364.696 359.08 359.736 358.84 352.856 358.36C346.136 357.72 337.976 357.4 328.376 357.4C321.656 357.4 316.616 358.36 313.256 360.28C310.056 362.2 308.456 365.88 308.456 371.32C308.456 375.64 308.856 380.6 309.656 386.2C310.456 391.64 311.336 396.84 312.296 401.8C313.416 406.76 314.376 411.16 315.176 415C315.976 418.68 316.376 421 316.376 421.96C316.376 423.56 315.816 424.76 314.696 425.56C313.576 426.36 311.976 426.84 309.896 427C309.416 427.16 308.616 427.24 307.496 427.24C306.376 427.4 305.336 427.48 304.376 427.48Z" fill="#E74980"/>
<path d="M415.001 427.48C414.041 427.48 413.081 427.4 412.121 427.24C411.161 427.24 410.521 427.16 410.201 427C409.081 426.84 407.801 426.44 406.361 425.8C404.921 425 403.881 423.48 403.241 421.24C402.601 418.68 401.961 415 401.321 410.2C400.681 405.24 400.121 399.56 399.641 393.16C399.161 386.6 398.761 379.4 398.441 371.56C398.121 363.72 397.961 355.48 397.961 346.84C397.961 338.84 398.121 330.6 398.441 322.12C398.761 313.64 399.241 305.24 399.881 296.92C400.681 288.44 401.641 280.2 402.761 272.2C404.041 264.04 405.481 256.36 407.081 249.16C407.401 247.56 408.121 246.36 409.241 245.56C410.521 244.76 411.801 244.28 413.081 244.12C418.521 243.8 424.601 243.56 431.321 243.4C438.201 243.24 445.081 243.16 451.961 243.16C458.521 243.16 464.841 243.32 470.921 243.64C477.161 243.8 482.441 243.96 486.761 244.12C488.841 244.28 490.121 244.84 490.601 245.8C491.241 246.76 491.561 247.8 491.561 248.92C491.561 251.32 491.241 253.96 490.601 256.84C490.121 259.72 489.401 262.28 488.441 264.52C488.121 265.32 487.641 265.88 487.001 266.2C486.361 266.52 485.721 266.68 485.081 266.68C484.441 266.68 483.721 266.68 482.921 266.68C482.281 266.52 481.641 266.36 481.001 266.2C478.441 265.56 474.441 264.84 469.001 264.04C463.721 263.08 456.921 262.6 448.601 262.6C442.201 262.6 437.401 262.92 434.201 263.56C431.161 264.2 428.841 265.32 427.241 266.92C425.801 268.36 424.601 271.08 423.641 275.08C422.841 279.08 422.121 283.88 421.481 289.48C420.841 294.92 420.361 300.92 420.041 307.48C419.881 314.04 419.801 320.52 419.801 326.92C419.801 331.88 420.521 335.24 421.961 337C423.401 338.76 426.281 339.64 430.601 339.64C436.841 339.64 444.121 338.84 452.441 337.24C460.761 335.64 469.801 334.84 479.561 334.84C481.161 334.84 482.601 335.16 483.881 335.8C485.161 336.44 485.801 337.56 485.801 339.16C485.801 341.56 485.561 344.44 485.081 347.8C484.601 351 483.881 353.72 482.921 355.96C482.441 357.08 481.801 357.88 481.001 358.36C480.361 358.84 479.481 359.08 478.361 359.08C475.321 359.08 470.361 358.84 463.481 358.36C456.761 357.72 448.601 357.4 439.001 357.4C432.281 357.4 427.241 358.36 423.881 360.28C420.681 362.2 419.081 365.88 419.081 371.32C419.081 375.64 419.481 380.6 420.281 386.2C421.081 391.64 421.961 396.84 422.921 401.8C424.041 406.76 425.001 411.16 425.801 415C426.601 418.68 427.001 421 427.001 421.96C427.001 423.56 426.441 424.76 425.321 425.56C424.201 426.36 422.601 426.84 420.521 427C420.041 427.16 419.241 427.24 418.121 427.24C417.001 427.4 415.961 427.48 415.001 427.48Z" fill="#E74980"/>
<path d="M566.906 427.72C557.786 427.72 548.906 427.64 540.266 427.48C531.786 427.32 524.266 427.16 517.706 427C515.146 426.84 513.146 426.36 511.706 425.56C510.266 424.76 509.466 422.92 509.306 420.04C509.146 414.12 508.986 407.96 508.826 401.56C508.666 395.16 508.586 388.52 508.586 381.64C508.586 371.08 508.746 360.2 509.066 349C509.546 337.64 510.266 326.36 511.226 315.16C512.186 303.96 513.386 292.92 514.826 282.04C516.426 271 518.346 260.44 520.586 250.36C521.066 248.28 521.866 246.76 522.986 245.8C524.106 244.68 525.466 244.04 527.066 243.88C530.586 243.56 535.626 243.32 542.186 243.16C548.746 243 555.706 242.92 563.066 242.92C572.186 242.92 581.226 243 590.186 243.16C599.146 243.32 606.506 243.64 612.266 244.12C613.866 244.28 614.986 244.68 615.626 245.32C616.426 245.96 616.826 246.68 616.826 247.48C616.826 249.08 616.346 251.8 615.386 255.64C614.426 259.32 613.466 262.28 612.506 264.52C612.186 265.32 611.706 265.96 611.066 266.44C610.426 266.92 609.626 267.16 608.666 267.16C608.026 267.16 607.306 267 606.506 266.68C605.706 266.36 604.826 266.12 603.866 265.96C599.706 264.84 594.106 263.72 587.066 262.6C580.026 261.48 570.746 260.92 559.226 260.92C553.946 260.92 550.026 261.32 547.466 262.12C545.066 262.92 543.146 264.12 541.706 265.72C540.266 267.48 538.986 270.28 537.866 274.12C536.746 277.8 535.866 282.12 535.226 287.08C534.586 291.88 534.026 297 533.546 302.44C533.226 307.72 533.066 312.76 533.066 317.56C533.066 320.6 533.546 322.76 534.506 324.04C535.466 325.16 537.226 325.72 539.786 325.72C544.106 325.72 549.466 325 555.866 323.56C562.426 322.12 570.346 321.4 579.626 321.4C585.226 321.4 590.106 322.04 594.266 323.32C598.426 324.44 600.506 326.28 600.506 328.84C600.506 330.44 600.186 332.44 599.546 334.84C599.066 337.24 598.506 339.4 597.866 341.32C597.226 342.76 596.586 343.72 595.946 344.2C595.306 344.52 594.506 344.68 593.546 344.68C591.786 344.68 588.186 343.96 582.746 342.52C577.306 340.92 571.066 340.12 564.026 340.12C551.706 340.12 542.906 342.28 537.626 346.6C532.346 350.76 529.706 359 529.706 371.32C529.706 379.96 529.946 386.84 530.426 391.96C530.906 396.92 531.786 400.68 533.066 403.24C534.346 405.8 536.186 407.48 538.586 408.28C540.986 408.92 544.186 409.24 548.186 409.24C560.186 409.24 571.386 408.76 581.786 407.8C592.186 406.68 600.586 405.08 606.986 403C608.106 402.68 609.066 402.44 609.866 402.28C610.666 401.96 611.386 401.8 612.026 401.8C612.826 401.8 613.546 402.04 614.186 402.52C614.826 403 615.386 403.8 615.866 404.92C616.506 406.68 617.066 409.48 617.546 413.32C618.026 417.16 618.266 419.88 618.266 421.48C618.266 423.08 617.706 424.36 616.586 425.32C615.626 426.12 614.186 426.6 612.266 426.76C605.226 427.08 597.786 427.24 589.946 427.24C582.266 427.4 574.586 427.56 566.906 427.72Z" fill="#E74980"/>
<path d="M696.984 427.72C687.864 427.72 678.984 427.64 670.344 427.48C661.864 427.32 654.344 427.16 647.784 427C645.224 426.84 643.224 426.36 641.784 425.56C640.344 424.76 639.544 422.92 639.384 420.04C639.224 414.12 639.064 407.96 638.904 401.56C638.744 395.16 638.664 388.52 638.664 381.64C638.664 371.08 638.824 360.2 639.144 349C639.624 337.64 640.344 326.36 641.304 315.16C642.264 303.96 643.464 292.92 644.904 282.04C646.504 271 648.424 260.44 650.664 250.36C651.144 248.28 651.944 246.76 653.064 245.8C654.184 244.68 655.544 244.04 657.144 243.88C660.664 243.56 665.704 243.32 672.264 243.16C678.824 243 685.784 242.92 693.144 242.92C702.264 242.92 711.304 243 720.264 243.16C729.224 243.32 736.584 243.64 742.344 244.12C743.944 244.28 745.064 244.68 745.704 245.32C746.504 245.96 746.904 246.68 746.904 247.48C746.904 249.08 746.424 251.8 745.464 255.64C744.504 259.32 743.544 262.28 742.584 264.52C742.264 265.32 741.784 265.96 741.144 266.44C740.504 266.92 739.704 267.16 738.744 267.16C738.104 267.16 737.384 267 736.584 266.68C735.784 266.36 734.904 266.12 733.944 265.96C729.784 264.84 724.184 263.72 717.144 262.6C710.104 261.48 700.824 260.92 689.304 260.92C684.024 260.92 680.104 261.32 677.544 262.12C675.144 262.92 673.224 264.12 671.784 265.72C670.344 267.48 669.064 270.28 667.944 274.12C666.824 277.8 665.944 282.12 665.304 287.08C664.664 291.88 664.104 297 663.624 302.44C663.304 307.72 663.144 312.76 663.144 317.56C663.144 320.6 663.624 322.76 664.584 324.04C665.544 325.16 667.304 325.72 669.864 325.72C674.184 325.72 679.544 325 685.944 323.56C692.504 322.12 700.424 321.4 709.704 321.4C715.304 321.4 720.184 322.04 724.344 323.32C728.504 324.44 730.584 326.28 730.584 328.84C730.584 330.44 730.264 332.44 729.624 334.84C729.144 337.24 728.584 339.4 727.944 341.32C727.304 342.76 726.664 343.72 726.024 344.2C725.384 344.52 724.584 344.68 723.624 344.68C721.864 344.68 718.264 343.96 712.824 342.52C707.384 340.92 701.144 340.12 694.104 340.12C681.784 340.12 672.984 342.28 667.704 346.6C662.424 350.76 659.784 359 659.784 371.32C659.784 379.96 660.024 386.84 660.504 391.96C660.984 396.92 661.864 400.68 663.144 403.24C664.424 405.8 666.264 407.48 668.664 408.28C671.064 408.92 674.264 409.24 678.264 409.24C690.264 409.24 701.464 408.76 711.864 407.8C722.264 406.68 730.664 405.08 737.064 403C738.184 402.68 739.144 402.44 739.944 402.28C740.744 401.96 741.464 401.8 742.104 401.8C742.904 401.8 743.624 402.04 744.264 402.52C744.904 403 745.464 403.8 745.944 404.92C746.584 406.68 747.144 409.48 747.624 413.32C748.104 417.16 748.344 419.88 748.344 421.48C748.344 423.08 747.784 424.36 746.664 425.32C745.704 426.12 744.264 426.6 742.344 426.76C735.304 427.08 727.864 427.24 720.024 427.24C712.344 427.4 704.664 427.56 696.984 427.72Z" fill="#E74980"/>
</svg>
